HIERARCHY
ROOT joint_Root
{
	OFFSET 0.0 0.0 0.0
	CHANNELS 6 Xposition Yposition Zposition Zrotation Xrotation Yrotation 
	JOINT Hips
	{
		OFFSET -17.1583 93.1646 452.98
		CHANNELS 6 Xposition Yposition Zposition Zrotation Xrotation Yrotation 
		JOINT Spine
		{
			OFFSET 15.7357 0.0 0.0
			CHANNELS 6 Xposition Yposition Zposition Zrotation Xrotation Yrotation 
			JOINT Chest
			{
				OFFSET 8.98455 -0.406207 0.0
				CHANNELS 6 Xposition Yposition Zposition Zrotation Xrotation Yrotation 
				JOINT Neck
				{
					OFFSET 16.3773 0.0 0.0
					CHANNELS 6 Xposition Yposition Zposition Zrotation Xrotation Yrotation 
					JOINT Head
					{
						OFFSET 6.45672 0.0 0.0
						CHANNELS 6 Xposition Yposition Zposition Zrotation Xrotation Yrotation 
						End Site
						{
							OFFSET 0.0 0.0 0.0
						}
					}
				}
				JOINT Shoulder_L
				{
					OFFSET 12.9942 -0.242716 4.98039
					CHANNELS 6 Xposition Yposition Zposition Zrotation Xrotation Yrotation 
					JOINT UpperArm_L
					{
						OFFSET 5.34809 0.0 0.0
						CHANNELS 6 Xposition Yposition Zposition Zrotation Xrotation Yrotation 
						JOINT LowerArm_L
						{
							OFFSET 24.3286 1.87007e-05 0.0
							CHANNELS 6 Xposition Yposition Zposition Zrotation Xrotation Yrotation 
							JOINT Hand_L
							{
								OFFSET 22.2916 0.0 0.0
								CHANNELS 6 Xposition Yposition Zposition Zrotation Xrotation Yrotation 
								End Site
								{
									OFFSET 0.0 0.0 0.0
								}
							}
						}
					}
				}
				JOINT Shoulder_R
				{
					OFFSET 12.9945 -0.242716 -4.98039
					CHANNELS 6 Xposition Yposition Zposition Zrotation Xrotation Yrotation 
					JOINT UpperArm_R
					{
						OFFSET -5.34813 0.0 0.0
						CHANNELS 6 Xposition Yposition Zposition Zrotation Xrotation Yrotation 
						JOINT LowerArm_R
						{
							OFFSET -24.3289 0.000322201 0.0
							CHANNELS 6 Xposition Yposition Zposition Zrotation Xrotation Yrotation 
							JOINT Hand_R
							{
								OFFSET -22.2915 -0.000108084 0.0
								CHANNELS 6 Xposition Yposition Zposition Zrotation Xrotation Yrotation 
								End Site
								{
									OFFSET 0.0 0.0 0.0
								}
							}
						}
					}
				}
			}
		}
		JOINT UpperLeg_L
		{
			OFFSET -2.19248 -6.46944 0.0
			CHANNELS 6 Xposition Yposition Zposition Zrotation Xrotation Yrotation 
			JOINT LowerLeg_L
			{
				OFFSET 39.0811 0.0 -1.23785e-05
				CHANNELS 6 Xposition Yposition Zposition Zrotation Xrotation Yrotation 
				JOINT Foot_L
				{
					OFFSET 40.9854 0.0 -1.26872e-05
					CHANNELS 6 Xposition Yposition Zposition Zrotation Xrotation Yrotation 
					JOINT Toes_L
					{
						OFFSET 11.7543 0.0 0.0
						CHANNELS 6 Xposition Yposition Zposition Zrotation Xrotation Yrotation 
						End Site
						{
							OFFSET 0.0 0.0 0.0
						}
					}
				}
			}
		}
		JOINT UpperLeg_R
		{
			OFFSET -2.19251 6.46944 0.0
			CHANNELS 6 Xposition Yposition Zposition Zrotation Xrotation Yrotation 
			JOINT LowerLeg_R
			{
				OFFSET -39.0811 -0.00228153 -0.0401928
				CHANNELS 6 Xposition Yposition Zposition Zrotation Xrotation Yrotation 
				JOINT Foot_R
				{
					OFFSET -40.9854 0.0 0.0
					CHANNELS 6 Xposition Yposition Zposition Zrotation Xrotation Yrotation 
					JOINT Toes_R
					{
						OFFSET -11.7543 0.0 0.0
						CHANNELS 6 Xposition Yposition Zposition Zrotation Xrotation Yrotation 
						End Site
						{
							OFFSET 0.0 0.0 0.0
						}
					}
				}
			}
		}
	}
}
MOTION
Frames:	5
Frame Time:	0.0333333
0.000000 0.000000 0.000000 0.000000 0.000000 -0.000000 168.027000 89.037500 202.358000 -78.756600 19.011300 178.433000 15.735700 0.000005 -0.000001 70.341200 85.670000 -66.297600 8.984550 -0.406207 -0.000000 0.515386 -3.167960 8.097530 16.377300 -0.000001 -0.000001 -1.035880 5.935570 -0.359943 6.456720 -0.000001 -0.000000 8.347270 10.349600 -1.396010 12.994200 -0.242716 4.980390 -92.747300 9.494780 -73.780200 5.348090 -0.000007 -0.000001 -73.532600 8.254970 -3.507030 24.328600 0.000019 0.000005 3.870760 32.792200 -7.123010 22.291600 -0.000001 0.000005 -7.021960 4.921310 8.952250 12.994500 -0.242716 -4.980390 88.365200 5.423100 -73.196400 -5.348130 -0.000001 -0.000004 -62.811200 9.755220 -9.243120 -24.328900 0.000322 -0.000009 0.684221 3.136340 -12.344000 -22.291500 -0.000108 -0.000004 7.434780 5.269700 0.902310 -2.192480 -6.469440 -0.000000 -167.322000 6.417140 -9.666890 39.081100 -0.000007 -0.000012 0.296252 -0.135107 65.483800 40.985400 -0.000006 -0.000013 -5.632670 4.057410 -30.545300 11.754300 -0.000000 0.000003 0.000371 0.006495 -16.313700 -2.192510 6.469440 -0.000001 -172.916000 5.052620 168.707000 -39.081100 -0.002282 -0.040193 -0.054837 0.080842 35.716200 -40.985400 0.000008 0.000006 -11.305400 -5.605140 -77.253400 -11.754300 -0.000006 -0.000006 -0.008257 0.257786 -6.103590
0.000000 0.000000 0.000000 0.000000 0.000000 -0.000000 169.367000 90.350200 199.297000 -80.547000 18.498400 179.209000 15.735700 0.000005 -0.000001 79.568900 85.898800 -76.154400 8.984550 -0.406207 -0.000000 0.361095 -1.705010 6.830230 16.377300 -0.000001 -0.000001 -0.824747 5.144910 -0.227462 6.456720 -0.000001 -0.000000 8.539550 8.782640 -1.358540 12.994200 -0.242716 4.980390 -92.485700 8.356790 -73.369300 5.348090 -0.000007 -0.000001 -72.350900 4.422080 1.367430 24.328600 0.000019 0.000005 2.087540 38.686900 -3.337360 22.291600 -0.000001 0.000005 -10.415200 4.819780 10.943100 12.994500 -0.242716 -4.980390 88.696500 4.444560 -73.636100 -5.348130 -0.000001 -0.000004 -61.536400 9.557060 -15.239700 -24.328900 0.000322 -0.000009 -0.772830 -2.519230 -17.025100 -22.291500 -0.000108 -0.000004 5.791080 5.346960 -1.286580 -2.192480 -6.469440 -0.000000 -169.805000 3.673220 -14.412000 39.081100 -0.000007 -0.000012 0.274544 -0.117438 66.839900 40.985400 -0.000006 -0.000013 -5.602300 6.089050 -36.484900 11.754300 -0.000000 0.000003 0.000362 0.006340 -16.320000 -2.192510 6.469440 -0.000001 -174.950000 6.037390 173.513000 -39.081100 -0.002282 -0.040193 -0.068104 0.119138 30.935800 -40.985400 0.000008 0.000006 -11.701700 -4.656640 -74.630200 -11.754300 -0.000006 -0.000006 -0.005254 0.231574 -7.173160
0.000000 0.000000 0.000000 0.000000 0.000000 -0.000000 170.546000 91.568200 196.511000 -81.978900 17.794200 179.368000 15.735700 0.000005 -0.000001 89.525600 86.075700 -86.570600 8.984550 -0.406207 -0.000000 0.095965 -0.262569 5.906480 16.377300 -0.000001 -0.000001 -1.049890 4.311110 -0.089865 6.456720 -0.000001 -0.000000 8.427750 7.341950 -1.981290 12.994200 -0.242716 4.980390 -92.422000 7.847880 -72.788900 5.348090 -0.000007 -0.000001 -69.081100 1.517770 6.934510 24.328600 0.000019 0.000005 2.933120 39.833200 -4.573300 22.291600 -0.000001 0.000005 -10.979300 4.811430 11.101300 12.994500 -0.242716 -4.980390 89.152200 2.930720 -73.857900 -5.348130 -0.000001 -0.000004 -60.874200 8.096100 -20.575100 -24.328900 0.000322 -0.000009 -2.948620 -7.515450 -21.486200 -22.291500 -0.000108 -0.000004 5.906290 5.392550 -2.696550 -2.192480 -6.469440 -0.000000 -172.114000 1.597370 -18.939300 39.081100 -0.000007 -0.000012 0.210540 -0.097951 65.049300 40.985400 -0.000006 -0.000013 -5.665170 11.325500 -41.300000 11.754300 -0.000000 0.000003 0.000572 0.010263 -16.160800 -2.192510 6.469440 -0.000001 -176.780000 8.048500 177.141000 -39.081100 -0.002282 -0.040193 -0.071609 0.149076 26.681600 -40.985400 0.000008 0.000006 -12.079500 -3.361670 -70.649100 -11.754300 -0.000006 -0.000006 -0.001442 0.189161 -8.899530
0.000000 0.000000 0.000000 0.000000 0.000000 -0.000000 171.596000 92.613200 193.846000 -83.340400 17.288100 178.952000 15.735700 0.000005 -0.000001 101.201000 86.176800 -98.716100 8.984550 -0.406207 -0.000000 -0.288622 1.310460 4.970680 16.377300 -0.000001 -0.000001 -1.634070 3.563890 0.152215 6.456720 -0.000001 -0.000000 7.913770 5.885050 -2.737520 12.994200 -0.242716 4.980390 -92.477300 7.597570 -71.880500 5.348090 -0.000007 -0.000001 -64.471300 -0.776151 12.010000 24.328600 0.000019 0.000005 4.516500 35.671600 -7.714650 22.291600 -0.000001 0.000005 -9.428860 4.935950 8.654790 12.994500 -0.242716 -4.980390 89.482400 1.838860 -74.276000 -5.348130 -0.000001 -0.000004 -60.205100 5.324970 -25.211600 -24.328900 0.000322 -0.000009 -4.365110 -9.298000 -25.282800 -22.291500 -0.000108 -0.000004 6.506590 5.411710 -3.321950 -2.192480 -6.469440 -0.000000 -174.352000 -0.241850 -22.693700 39.081100 -0.000007 -0.000012 0.162632 -0.093715 60.046600 40.985400 -0.000006 -0.000013 -6.866290 15.577200 -47.193300 11.754300 -0.000000 0.000003 0.001910 0.043406 -14.816000 -2.192510 6.469440 -0.000001 -178.778000 11.299300 -179.910000 -39.081100 -0.002282 -0.040193 -0.057963 0.148005 22.491500 -40.985400 0.000008 0.000006 -11.787700 -0.989288 -66.181800 -11.754300 -0.000006 -0.000006 0.001419 0.138803 -10.944400
0.000000 0.000000 0.000000 0.000000 0.000000 -0.000000 172.564000 93.335300 191.284000 -84.496700 17.053200 177.955000 15.735700 0.000005 -0.000001 114.014000 86.193000 -111.997000 8.984550 -0.406207 -0.000000 -0.859516 2.946180 4.054770 16.377300 -0.000001 -0.000001 -2.501290 3.099170 0.325391 6.456720 -0.000001 -0.000000 7.158010 4.445640 -3.195130 12.994200 -0.242716 4.980390 -92.499900 7.258580 -70.937500 5.348090 -0.000007 -0.000001 -58.742600 -5.935100 16.015700 24.328600 0.000019 0.000005 4.367180 27.032600 -9.538760 22.291600 -0.000001 0.000005 -7.206390 5.012460 7.053300 12.994500 -0.242716 -4.980390 89.614700 1.438830 -75.007400 -5.348130 -0.000001 -0.000004 -58.627700 2.420650 -28.484100 -24.328900 0.000322 -0.000009 -5.081060 -8.891640 -29.904400 -22.291500 -0.000108 -0.000004 7.232090 5.385820 -2.483010 -2.192480 -6.469440 -0.000000 -176.634000 -2.188180 -25.803900 39.081100 -0.000007 -0.000012 0.121394 -0.094084 52.222300 40.985400 -0.000006 -0.000013 -7.299980 15.157400 -51.634300 11.754300 -0.000000 0.000003 0.001316 0.026281 -15.510700 -2.192510 6.469440 -0.000001 179.325000 14.807800 -177.737000 -39.081100 -0.002282 -0.040193 -0.037155 0.119114 18.769400 -40.985400 0.000008 0.000006 -11.769300 2.065440 -62.057200 -11.754300 -0.000006 -0.000006 0.002484 0.080078 -13.325600
